<svg width="512" height="512" viewBox="0 0 512 512" fill="none" xmlns="http://www.w3.org/2000/svg">
<rect width="512" height="512" fill="white"/>
<rect x="38.5" y="38.5" width="435" height="435" rx="37.5" fill="white" stroke="#4A4A4A" stroke-width="15"/>
<rect x="61" y="61" width="390" height="390" rx="24" fill="#4A4A4A"/>
<path d="M138.875 416.95C144.425 408.55 147.725 399.25 147.725 393.4C147.725 388 145.625 386.2 137.975 386.2H130.025C110.525 386.2 100.175 374.65 100.175 353.8C100.175 334.6 110.975 313.3 131.375 293.95H105.425V277.15H163.625V288.85C138.425 302.95 121.325 328.15 121.325 351.55C121.325 363.1 126.875 367.45 143.225 367.45C160.175 367.45 166.475 373.3 166.475 387.7C166.475 396.85 163.625 406.6 157.925 416.95H138.875ZM217.45 416.95C222.4 405.1 224.8 397.45 224.8 393.85C224.8 389.05 219.85 386.5 210.1 386.35H205.9C187.9 386.05 175.15 374.5 175.15 357.1C175.15 342.7 182.2 333.1 196.45 328.45C186.7 324.25 181.9 318.4 181.9 310.75C181.9 303.7 185.95 297.55 193 293.95H177.25V277.15H238.45V293.95H226.9C208.6 293.95 202.15 297.55 202.15 307.15C202.15 316.75 208.75 320.8 226.3 320.8H233.95V337.45H225.85C215.65 337.45 209.05 338.05 206.05 339.1C200.2 341.2 196.3 347.2 196.3 353.2C196.3 363.1 200.5 366.4 218.5 367.3C236.35 368.2 243.25 372.55 243.25 387.25C243.25 396.55 240.55 406.45 235 416.95H217.45ZM249.208 385L283.108 329.95L249.208 277.15H274.858L296.908 314.8L318.808 277.15H344.608L310.708 329.8L344.608 385H318.958L296.908 347.65L274.858 385H249.208Z" fill="white"/>
</svg>
